<svg xmlns="http://www.w3.org/2000/svg" width="1145" height="760" viewBox="0 0 1145 760" role="img" aria-labelledby="title desc">
  <title id="title">Simplified 5G Core Architecture with Service-Based Interfaces and Reference Points</title>
  <desc id="desc">A simplified 5G Core architecture diagram showing control-plane and managed network functions connected by the service-based interface bus and the user-plane function.</desc>
  <defs>
    <style>
      .bg { fill: #ffffff; }
      .title { font: 700 34px Arial, Helvetica, sans-serif; fill: #0f172a; }
      .subtitle { font: 400 18px Arial, Helvetica, sans-serif; fill: #475569; }
      .section-title { font: 700 18px Arial, Helvetica, sans-serif; fill: #1e293b; }
      .box { fill: #ffffff; stroke: #334155; stroke-width: 2; rx: 14; ry: 14; }
      .box-cp { fill: #e0f2fe; stroke: #0369a1; }
      .box-repo { fill: #ede9fe; stroke: #6d28d9; }
      .box-up { fill: #dcfce7; stroke: #15803d; }
      .box-ext { fill: #fff7ed; stroke: #c2410c; }
      .box-access { fill: #fef3c7; stroke: #b45309; }
      .label { font: 700 20px Arial, Helvetica, sans-serif; fill: #0f172a; text-anchor: middle; dominant-baseline: middle; }
      .small { font: 400 13px Arial, Helvetica, sans-serif; fill: #475569; text-anchor: middle; }
      .iface { font: 700 15px Arial, Helvetica, sans-serif; fill: #0f172a; text-anchor: middle; dominant-baseline: middle; }
      .note { font: 400 14px Arial, Helvetica, sans-serif; fill: #475569; }
      .bus { stroke: #0f172a; stroke-width: 5; stroke-linecap: round; }
      .sbi { stroke: #2563eb; stroke-width: 2.5; stroke-linecap: round; fill: none; }
      .ref { stroke: #111827; stroke-width: 3; stroke-linecap: round; fill: none; marker-end: url(#arrow); }
      .ref-soft { stroke: #64748b; stroke-width: 2.5; stroke-dasharray: 8 6; stroke-linecap: round; fill: none; marker-end: url(#arrowGray); }
      .n4 { stroke: #16a34a; stroke-width: 3; stroke-linecap: round; fill: none; marker-end: url(#arrowGreen); }
      .legend-line { stroke-width: 3; stroke-linecap: round; }
    </style>
    <marker id="arrow" markerWidth="12" markerHeight="12" refX="10" refY="6" orient="auto" markerUnits="strokeWidth">
      <path d="M2,2 L10,6 L2,10 Z" fill="#111827"/>
    </marker>
    <marker id="arrowGray" markerWidth="12" markerHeight="12" refX="10" refY="6" orient="auto" markerUnits="strokeWidth">
      <path d="M2,2 L10,6 L2,10 Z" fill="#64748b"/>
    </marker>
    <marker id="arrowGreen" markerWidth="12" markerHeight="12" refX="10" refY="6" orient="auto" markerUnits="strokeWidth">
      <path d="M2,2 L10,6 L2,10 Z" fill="#16a34a"/>
    </marker>
    <filter id="shadow" x="-20%" y="-20%" width="140%" height="140%">
      <feDropShadow dx="0" dy="4" stdDeviation="5" flood-opacity="0.15"/>
    </filter>
  </defs>

  <rect class="bg" width="1145" height="760"/>
  <g transform="translate(-60,0)">
  <text x="600" y="52" class="title" text-anchor="middle">5G Core Architecture — Managed Functions (only) </text>
  <text x="600" y="82" class="subtitle" text-anchor="middle">Control-plane Network Functions via Service-Based Interfaces; user-plane connectivity shown below</text>


  <!-- Control Plane Area -->
  <rect x="70" y="125" width="1120" height="350" fill="#eef6ff" stroke="#93c5fd" stroke-width="2" rx="24" ry="24"/>
  <text x="105" y="158" class="section-title">5G Core Control Plane — Service-Based Architecture (SBA)</text>

  <g transform="translate(-30,0)">
  <!-- SBI bus -->
  <line x1="145" y1="310" x2="1180" y2="310" class="bus"/>
  <text x="750" y="333" class="iface">Service-Based Interface bus: Nnrf / Namf / Nsmf / Nudm / Nausf / Npcf / Nnssf / Nnef</text>

  <!-- CP Function Boxes Row 1 -->
  <g filter="url(#shadow)" >
    <rect x="130" y="190" width="130" height="70" class="box box-cp"/>
    <text x="195" y="218" class="label">AMF-1</text><text x="195" y="244" class="small">Access &amp; Mobility</text>

    <rect x="290" y="190" width="130" height="70" class="box box-cp"/>
    <text x="355" y="218" class="label">SMF-1</text><text x="355" y="244" class="small">Session Mgmt.</text>

    <rect x="450" y="190" width="130" height="70" class="box box-cp"/>
    <text x="515" y="218" class="label">AUSF-1</text><text x="515" y="244" class="small">Authentication</text>

    <rect x="610" y="190" width="130" height="70" class="box box-repo"/>
    <text x="675" y="218" class="label">UDM-1</text><text x="675" y="244" class="small">User Data Mgmt.</text>

    <rect x="760" y="190" width="130" height="70" class="box box-cp"/>
    <text x="825" y="218" class="label">PCF-1</text><text x="825" y="244" class="small">Policy Control</text>

    <rect x="910" y="190" width="130" height="70" class="box box-cp"/>
    <text x="975" y="218" class="label">NSSF-1</text><text x="975" y="244" class="small">Slice Selection</text>

    <rect x="1060" y="190" width="130" height="70" class="box box-cp"/>
    <text x="1125" y="218" class="label">NEF-1</text><text x="1125" y="244" class="small">Exposure</text>
  </g>
  
  <!-- CP Function Boxes Row 2 -->
  <g filter="url(#shadow)">
    <rect x="210" y="365" width="130" height="70" class="box box-cp"/>
    <text x="275" y="393" class="label">NRF-1</text><text x="275" y="419" class="small">NF Discovery</text>

    <rect x="1060" y="365" width="130" height="70" class="box box-ext"/>
    <text x="1125" y="393" class="label">AF-1</text><text x="1125" y="419" class="small">Application Fn.</text>
  </g>

  <!-- SBI drops -->
  <g class="sbi">
    <path d="M195,260 L195,310"/><path d="M355,260 L355,310"/><path d="M515,260 L515,310"/>
    <path d="M675,260 L675,310"/><path d="M825,260 L825,310"/>
    <path d="M975,260 L975,310"/><path d="M1125,260 L1125,310"/>
    <path d="M275,365 L275,310"/>
    <path d="M1125,365 L1125,310"/>
  </g>
</g>

  <!-- User Plane Area -->
  <rect x="70" y="495" width="1120" height="150" fill="#f0fdf4" stroke="#86efac" stroke-width="2" rx="24" ry="24"/>
  <text x="105" y="528" class="section-title">User Plane</text>

  <g filter="url(#shadow)">
    <rect x="450" y="525" width="150" height="85" class="box box-up"/>
    <text x="525" y="555" class="label">UPF-1</text><text x="525" y="582" class="small">User Plane</text>
  </g>

  <!-- N4 control reference -->
  <path d="M525,525 C525,390 365,390 365,260" class="n4"/>
  <text x="390" y="390" class="iface">N4</text>

  <!-- Legend -->
  <g transform="translate(765,670)">
    <rect x="0" y="0" width="420" height="70" class="box" fill="#ffffff" stroke="#64748b"/>
    <line x1="25" y1="22" x2="85" y2="22" class="legend-line" stroke="#2563eb"/>
    <text x="100" y="27" class="note">Service-Based Interface connection to SBI bus</text>
    <line x1="25" y1="47" x2="85" y2="47" class="n4" stroke="#111827" marker-end="url(#arrow)"/>
    <text x="100" y="52" class="note">Reference point / data path</text>
  </g>
  </g>

</svg>
