<svg xmlns="http://www.w3.org/2000/svg" width="1760" height="980" viewBox="0 0 1760 980" role="img" aria-labelledby="title desc">
  <title id="title">Transport Inclusion Network Topology</title>
  <desc id="desc">DWDM-ROADM ring with 3 nodes, transponders on client sides, connected RAN branches, IP router, wireless transport segment, 5G core, and Internet.</desc>
  <defs>
    <style>
      .title { font: 700 28px Arial, Helvetica, sans-serif; fill: #1f2937; }
      .subtitle { font: 400 15px Arial, Helvetica, sans-serif; fill: #4b5563; }
      .label { font: 700 15px Arial, Helvetica, sans-serif; fill: #111827; }
      .small { font: 400 12px Arial, Helvetica, sans-serif; fill: #374151; }
      .tiny { font: 400 11px Arial, Helvetica, sans-serif; fill: #4b5563; }
      .transport { fill: #dbeafe; stroke: #2563eb; stroke-width: 2.5; }
      .ran { fill: #dcfce7; stroke: #16a34a; stroke-width: 2.2; }
      .road { fill: #fef3c7; stroke: #d97706; stroke-width: 2.2; }
      .core { fill: #f3e8ff; stroke: #9333ea; stroke-width: 2.2; }
      .ue { fill: #fee2e2; stroke: #dc2626; stroke-width: 2; }
      .internet { fill: #e0f2fe; stroke: #0891b2; stroke-width: 2.2; }
      .router { fill: #fff7ed; stroke: #ea580c; stroke-width: 2.2; }
      .box { rx: 16; ry: 16; }
      .link { stroke: #374151; stroke-width: 3.2; fill: none; }
      .optical { stroke: #2563eb; stroke-width: 5; fill: none; }
      .wireless { stroke: #d97706; stroke-width: 3.5; fill: none; stroke-dasharray: 10 7; }
      .fronthaul { stroke: #16a34a; stroke-width: 2.8; fill: none; }
      .backhaul { stroke: #4b5563; stroke-width: 2.8; fill: none; }
      .ring-label { font: 700 14px Arial, Helvetica, sans-serif; fill: #1d4ed8; }
    </style>
    <!-- Arrowhead for optical ring direction indicators -->
    <marker id="ring-arrow" viewBox="0 0 10 10" refX="9" refY="5"
            markerWidth="5" markerHeight="5" orient="auto">
      <path d="M 0 0 L 10 5 L 0 10 z" fill="#2563eb"/>
    </marker>
  </defs>

  <rect x="0" y="0" width="1760" height="980" fill="#ffffff"/>
  <text x="10" y="55" class="title">Transport Inclusion Reference Topology</text>
  <text x="10" y="82" class="subtitle">DWDM-ROADM ring with RAN, transponders, IP router, wireless transport, 5G Core, and Internet domains</text>

  <!-- ============ Topology ============ -->
  <g transform="translate(-170, 0)">
  <!-- ============ DWDM / ROADM Ring — two unidirectional rings ============ -->
  <!-- Ring center (1139, 450); outer r=183 CW, inner r=176 CCW (circumradius) -->
  <!-- Arrowhead gap at ~3 o'clock, ±15° either side of horizontal (30° total gap, 330° arcs). -->
  <!-- r=176 is the exact circumradius — both rings enter ROADM-1/3 through their left edge. -->
  <!-- Outer CW:  start (1316,497) at +15°, sweep CW 330° to end (1316,403) at −15° -->
  <path d="M 1316 497 A 183 183 0 1 1 1316 403"
        stroke="#2563eb" stroke-width="3.5" fill="none" marker-end="url(#ring-arrow)"/>
  <!-- Inner CCW: start (1309,404) at −15°, sweep CCW 330° to end (1309,496) at +15° -->
  <path d="M 1309 404 A 176 176 0 1 0 1309 496"
        stroke="#2563eb" stroke-width="3.5" fill="none" marker-end="url(#ring-arrow)"/>
  <text x="1139" y="446" text-anchor="middle" class="ring-label">DWDM-ROADM Ring</text>
  <text x="1139" y="463" text-anchor="middle" class="tiny">2× unidirectional</text>

  <!-- ============ ROADM Nodes ============ -->
  <!-- ROADM-1: top -->
  <rect x="1025" y="240" width="140" height="80" class="transport box"/>
  <text x="1095" y="274" text-anchor="middle" class="label">ROADM-1</text>
  <text x="1095" y="296" text-anchor="middle" class="small">DWDM Node</text>

  <!-- ROADM-2: right -->
  <rect x="1245" y="410" width="140" height="80" class="transport box"/>
  <text x="1315" y="444" text-anchor="middle" class="label">ROADM-2</text>
  <text x="1315" y="466" text-anchor="middle" class="small">DWDM Node</text>

  <!-- ROADM-3: bottom -->
  <rect x="1025" y="580" width="140" height="80" class="transport box"/>
  <text x="1095" y="614" text-anchor="middle" class="label">ROADM-3</text>
  <text x="1095" y="636" text-anchor="middle" class="small">DWDM Node</text>

  <!-- ============ Transponder-1: ROADM-1 client side → O-CU-1 ============ -->
  <!-- TXP-1 right (1015) → ROADM-1 left (1025): 10 px optical stub -->
  <path class="optical" d="M1015 280 L1025 280"/>
  <rect x="910" y="252" width="105" height="56" class="transport box"/>
  <text x="962" y="273" text-anchor="middle" class="label">TXP-1</text>
  <text x="962" y="291" text-anchor="middle" class="small">Transponder</text>

  <!-- ============ Branch 1 (top): O-CU-1 → O-DU-1 → O-RU-1 → UEs ============ -->
  <!-- O-CU-1 right (860) → TXP-1 left (910): 50 px gap = same as OFH-SW-1→O-DU-2 -->
  <path class="backhaul" d="M860 280 L910 280"/>
  <!-- O-CU-1 -->
  <rect x="740" y="242" width="120" height="76" class="ran box"/>
  <text x="800" y="274" text-anchor="middle" class="label">O-CU-1</text>
  <text x="800" y="296" text-anchor="middle" class="small">Central Unit</text>

  <!-- O-DU-1 -->
  <path class="backhaul" d="M655 280 L740 280"/>
  <rect x="535" y="242" width="120" height="76" class="ran box"/>
  <text x="600" y="274" text-anchor="middle" class="label">O-DU-1</text>
  <text x="600" y="296" text-anchor="middle" class="small">Distributed Unit</text>

  <!-- O-RU-1: x=185 aligns with O-RU-2 (x=185) -->
  <path class="fronthaul" d="M535 280 L305 280"/>
  <rect x="185" y="242" width="120" height="76" class="ran box"/>
  <text x="245" y="274" text-anchor="middle" class="label">O-RU-1</text>
  <text x="245" y="296" text-anchor="middle" class="small">Radio Unit</text>

  <!-- UE-1 and UE-2 (above O-RU-1) -->
  <path class="fronthaul" d="M225 242 L220 190"/>
  <path class="fronthaul" d="M265 242 L270 190"/>

  <circle cx="218" cy="162" r="28" class="ue"/>
  <text x="218" y="158" text-anchor="middle" class="small">UE-1</text>
  <text x="218" y="175" text-anchor="middle" class="tiny">User</text>

  <circle cx="272" cy="162" r="28" class="ue"/>
  <text x="272" y="158" text-anchor="middle" class="small">UE-2</text>
  <text x="272" y="175" text-anchor="middle" class="tiny">User</text>

  <!-- ============ Transponder-3: ROADM-3 client side → O-CU-2 ============ -->
  <!-- TXP-3 right (1015) → ROADM-3 left (1025): 10 px optical stub -->
  <path class="optical" d="M1015 620 L1025 620"/>
  <rect x="910" y="592" width="105" height="56" class="transport box"/>
  <text x="962" y="613" text-anchor="middle" class="label">TXP-3</text>
  <text x="962" y="631" text-anchor="middle" class="small">Transponder</text>

  <!-- ============ Branch 2: WT-1/WT-2 upper row + O-CU-2/O-DU-2/OFH-SW/O-RUs lower row ============ -->
  <!-- O-CU-2 right (860) → TXP-3 left (910): 50 px gap = same as OFH-SW-1→O-DU-2 -->
  <path class="backhaul" d="M860 620 L910 620"/>
  <!-- O-CU-2 (lower row, below WT-1) -->
  <rect x="740" y="582" width="120" height="76" class="ran box"/>
  <text x="800" y="614" text-anchor="middle" class="label">O-CU-2</text>
  <text x="800" y="636" text-anchor="middle" class="small">Central Unit</text>

  <!-- WT-1 (upper row, above O-CU-2) -->
  <path class="backhaul" d="M800 526 L800 582"/>
  <rect x="730" y="450" width="140" height="76" class="transport box"/>
  <text x="800" y="482" text-anchor="middle" class="label">WT-1</text>
  <text x="800" y="500" text-anchor="middle" class="small">Wireless Transport</text>

  <!-- Wireless link WT-2 to WT-1 -->
  <path class="wireless" d="M670 488 L730 488"/>

  <!-- WT-2 (upper row, above O-DU-2) -->
  <rect x="530" y="450" width="140" height="76" class="transport box"/>
  <text x="600" y="482" text-anchor="middle" class="label">WT-2</text>
  <text x="600" y="500" text-anchor="middle" class="small">Wireless Transport</text>

  <!-- WT-2 to O-DU-2 (vertical midhaul) -->
  <path class="backhaul" d="M600 526 L600 582"/>

  <!-- O-DU-2 (lower row, below WT-2) -->
  <rect x="535" y="582" width="130" height="76" class="ran box"/>
  <text x="600" y="614" text-anchor="middle" class="label">O-DU-2</text>
  <text x="600" y="636" text-anchor="middle" class="small">Distributed Unit</text>

  <!-- OFH-SW-1 -->
  <!-- OFH-SW-1 right (485) → O-DU-2 left (535): 50 px reference gap -->
  <path class="fronthaul" d="M535 620 L485 620"/>
  <rect x="325" y="582" width="160" height="76" class="transport box"/>
  <text x="405" y="614" text-anchor="middle" class="label">OFH-SW-1</text>
  <text x="405" y="636" text-anchor="middle" class="small">Open Fronthaul Switch</text>

  <!-- RU fanout from OFH switch -->
  <path class="fronthaul" d="M365 658 L245 752"/>
  <path class="fronthaul" d="M405 658 L385 752"/>
  <path class="fronthaul" d="M445 658 L525 752"/>

  <rect x="185" y="752" width="120" height="76" class="ran box"/>
  <text x="245" y="784" text-anchor="middle" class="label">O-RU-2</text>
  <text x="245" y="806" text-anchor="middle" class="small">Radio Unit</text>

  <rect x="325" y="752" width="120" height="76" class="ran box"/>
  <text x="385" y="784" text-anchor="middle" class="label">O-RU-3</text>
  <text x="385" y="806" text-anchor="middle" class="small">Radio Unit</text>

  <rect x="465" y="752" width="120" height="76" class="ran box"/>
  <text x="525" y="784" text-anchor="middle" class="label">O-RU-4</text>
  <text x="525" y="806" text-anchor="middle" class="small">Radio Unit</text>

  <!-- UEs from O-RU-2 -->
  <path class="fronthaul" d="M225 828 L215 908"/>
  <path class="fronthaul" d="M265 828 L275 908"/>
  <circle cx="213" cy="936" r="28" class="ue"/>
  <text x="213" y="932" text-anchor="middle" class="small">UE-3</text>
  <text x="213" y="948" text-anchor="middle" class="tiny">User</text>
  <circle cx="277" cy="936" r="28" class="ue"/>
  <text x="277" y="932" text-anchor="middle" class="small">UE-4</text>
  <text x="277" y="948" text-anchor="middle" class="tiny">User</text>

  <!-- UEs from O-RU-3 -->
  <path class="fronthaul" d="M365 828 L355 908"/>
  <path class="fronthaul" d="M405 828 L415 908"/>
  <circle cx="353" cy="936" r="28" class="ue"/>
  <text x="353" y="932" text-anchor="middle" class="small">UE-5</text>
  <text x="353" y="948" text-anchor="middle" class="tiny">User</text>
  <circle cx="417" cy="936" r="28" class="ue"/>
  <text x="417" y="932" text-anchor="middle" class="small">UE-6</text>
  <text x="417" y="948" text-anchor="middle" class="tiny">User</text>

  <!-- UEs from O-RU-4 -->
  <path class="fronthaul" d="M505 828 L497 908"/>
  <path class="fronthaul" d="M545 828 L553 908"/>
  <circle cx="495" cy="936" r="28" class="ue"/>
  <text x="495" y="932" text-anchor="middle" class="small">UE-7</text>
  <text x="495" y="948" text-anchor="middle" class="tiny">User</text>
  <circle cx="555" cy="936" r="28" class="ue"/>
  <text x="555" y="932" text-anchor="middle" class="small">UE-8</text>
  <text x="555" y="948" text-anchor="middle" class="tiny">User</text>

  <!-- ============ Core: ROADM-2 → TXP-2 → IP-RTR-1 → 5GC-1 → Internet ============ -->
  <!-- Transponder-2: ROADM-2 client side → IP-RTR-1 -->
  <!-- ROADM-2 right (1385) → TXP-2 left (1395): 10 px optical stub -->
  <path class="optical" d="M1385 450 L1395 450"/>
  <rect x="1395" y="425" width="105" height="50" class="transport box"/>
  <text x="1447" y="446" text-anchor="middle" class="label">TXP-2</text>
  <text x="1447" y="464" text-anchor="middle" class="small">Transponder</text>

  <!-- IP-RTR-1 -->
  <path class="link" d="M1500 450 L1515 450"/>
  <rect x="1515" y="410" width="140" height="80" class="router box"/>
  <text x="1585" y="444" text-anchor="middle" class="label">IP-RTR-1</text>
  <text x="1585" y="466" text-anchor="middle" class="small">IP Router</text>

  <!-- 5GC-1 -->
  <path class="link" d="M1655 450 L1675 450"/>
  <rect x="1675" y="410" width="140" height="80" class="core box"/>
  <text x="1745" y="444" text-anchor="middle" class="label">5GC-1</text>
  <text x="1745" y="466" text-anchor="middle" class="small">5G Core</text>

  <!-- Internet -->
  <path class="link" d="M1815 450 L1835 450"/>
  <ellipse cx="1877" cy="450" rx="42" ry="28" class="internet"/>
  <text x="1877" y="446" text-anchor="middle" class="label">NET-1</text>
  <text x="1877" y="464" text-anchor="middle" class="small">Internet</text>

  <!-- ============ Link labels ============ -->
  <!-- Branch 1 -->
  <text x="370" y="268" class="tiny">Open Fronthaul</text>
  <text x="660" y="268" class="tiny">Midhaul</text>
  <text x="862" y="232" class="tiny">Backhaul</text>

  <!-- Branch 2 -->
  <text x="490" y="572" class="tiny">Open Fronthaul</text>
  <text x="700" y="438" text-anchor="middle" class="tiny">Wireless Transport Link</text>
  </g>

  <!-- ============ Legend ============ -->
  <g transform="translate(930,860)">
    <rect x="0" y="0" width="820" height="110" fill="#f9fafb" stroke="#d1d5db" stroke-width="1.5" rx="18" ry="18"/>
    <text x="20" y="28" class="label">Legend</text>

    <rect x="20" y="42" width="34" height="22" class="transport box"/>
    <text x="66" y="58" class="small">DWDM / ROADM / Transponder / WT node</text>

    <rect x="20" y="72" width="34" height="22" class="ran box"/>
    <text x="66" y="88" class="small">RAN node (O-CU, O-DU, O-RU)</text>

    <rect x="360" y="42" width="34" height="22" class="router box"/>
    <text x="406" y="58" class="small">IP Router</text>

    <rect x="360" y="72" width="34" height="22" class="core box"/>
    <text x="406" y="88" class="small">Core network node</text>

    <circle cx="640" cy="53" r="14" class="ue"/>
    <text x="665" y="58" class="small">UE</text>

    <line x1="590" y1="83" x2="635" y2="83" class="wireless"/>
    <text x="645" y="88" class="small">Wireless transport</text>
  </g>
</svg>
